<?xml version="1.0" encoding="UTF-8" standalone="no"?>
<!DOCTYPE svg PUBLIC "-//W3C//DTD SVG 20010904//EN"
              "http://www.w3.org/TR/2001/REC-SVG-20010904/DTD/svg10.dtd">

<svg xmlns="http://www.w3.org/2000/svg"
     width="49.6994mm" height="49.6148mm"
     viewBox="0 0 587 586">
  <path id="Selection #1"
        fill="none" stroke="black" stroke-width="1"
        d="M 283.00,55.21
           C 283.00,55.21 298.00,55.21 298.00,55.21
             298.00,55.21 308.00,55.91 308.00,55.91
             337.79,57.95 366.92,64.15 394.00,77.26
             402.49,81.37 411.04,85.63 419.00,90.69
             419.00,90.69 436.00,101.93 436.00,101.93
             439.81,103.46 450.16,97.52 456.00,97.09
             479.40,95.37 496.27,110.33 496.00,134.00
             495.94,139.02 495.17,143.39 493.10,148.00
             491.86,150.76 489.24,153.94 489.78,157.00
             490.15,159.08 497.90,171.12 499.58,174.00
             506.80,186.44 509.70,192.71 515.00,206.00
             523.34,226.91 530.96,258.50 531.00,281.00
             531.00,281.00 531.00,305.00 531.00,305.00
             530.83,319.38 527.39,337.99 523.87,352.00
             504.53,429.00 447.75,490.71 373.00,517.31
             357.44,522.85 327.31,529.81 311.00,530.04
             311.00,530.04 302.00,530.04 302.00,530.04
             298.13,530.35 296.29,531.15 292.00,530.91
             292.00,530.91 277.00,530.00 277.00,530.00
             258.38,529.78 232.64,523.45 215.00,517.34
             144.00,492.78 91.33,438.05 67.67,367.00
             61.81,349.42 58.26,331.46 56.91,313.00
             56.91,313.00 56.00,303.00 56.00,303.00
             55.55,264.41 60.12,233.78 75.43,198.00
             75.43,198.00 89.86,170.00 89.86,170.00
             89.86,170.00 97.98,157.00 97.98,157.00
             99.44,153.05 96.45,149.57 95.07,146.00
             92.88,140.33 92.98,137.90 93.00,132.00
             93.09,110.29 108.84,96.76 130.00,97.00
             134.75,97.06 137.54,97.49 142.00,99.26
             144.86,100.39 147.84,102.52 151.00,101.69
             151.00,101.69 171.00,89.01 171.00,89.01
             184.68,80.96 197.15,75.03 212.00,69.42
             230.63,62.40 250.29,58.62 270.00,56.28
             270.00,56.28 283.00,55.21 283.00,55.21 Z
           M 206.00,136.00
           C 206.00,136.00 188.00,154.00 188.00,154.00
             186.18,155.82 181.22,161.22 179.00,161.80
             175.16,162.82 166.75,152.75 164.00,150.00
             164.00,150.00 156.00,142.30 156.00,142.30
             153.73,140.49 150.44,139.31 149.02,136.86
             147.34,133.96 148.61,130.32 147.15,126.00
             144.35,117.72 135.59,112.46 127.00,113.19
             110.98,114.54 103.10,133.83 113.53,145.82
             120.43,153.75 127.03,152.41 136.00,152.00
             136.00,152.00 137.85,158.00 137.85,158.00
             137.85,158.00 161.00,182.00 161.00,182.00
             154.96,186.32 144.69,197.27 139.00,203.00
             136.91,205.10 132.50,208.68 133.34,212.00
             134.29,215.80 138.99,219.29 143.00,216.63
             148.77,212.80 155.13,200.85 160.56,205.29
             160.56,205.29 179.09,227.00 179.09,227.00
             179.09,227.00 221.00,266.93 221.00,266.93
             221.00,266.93 237.00,280.87 237.00,280.87
             238.77,282.38 242.51,285.88 244.91,285.82
             247.49,285.75 252.10,279.94 253.84,278.00
             253.84,278.00 275.17,254.00 275.17,254.00
             277.61,251.30 283.22,247.01 281.83,243.00
             281.01,240.61 275.95,235.99 274.01,234.00
             274.01,234.00 260.00,219.00 260.00,219.00
             260.00,219.00 219.00,179.73 219.00,179.73
             212.19,173.89 204.98,167.11 197.00,163.00
             197.00,163.00 215.00,144.00 215.00,144.00
             215.00,144.00 206.00,136.00 206.00,136.00 Z
           M 392.00,163.00
           C 382.59,167.85 369.01,180.49 361.00,187.91
             361.00,187.91 316.91,232.00 316.91,232.00
             316.91,232.00 285.17,266.00 285.17,266.00
             285.17,266.00 194.27,371.00 194.27,371.00
             194.27,371.00 150.75,424.00 150.75,424.00
             150.75,424.00 141.08,436.00 141.08,436.00
             140.17,437.33 138.00,440.59 140.42,441.70
             142.18,442.51 144.62,440.75 146.00,439.84
             146.00,439.84 159.00,430.42 159.00,430.42
             159.00,430.42 213.00,390.87 213.00,390.87
             268.51,349.24 322.94,306.61 375.00,260.72
             389.12,248.27 402.43,234.93 415.07,221.00
             415.07,221.00 425.20,209.00 425.20,209.00
             426.31,207.64 428.47,204.69 430.17,204.20
             432.49,203.52 434.46,205.63 436.00,207.04
             440.90,211.53 449.60,224.60 455.26,213.00
             457.19,209.02 452.48,205.50 450.00,203.00
             450.00,203.00 436.00,189.00 436.00,189.00
             434.40,187.37 431.04,184.42 431.04,182.00
             431.04,179.00 438.73,172.27 441.00,170.00
             441.00,170.00 450.73,160.00 450.73,160.00
             452.12,158.30 453.79,155.08 455.41,154.02
             457.07,152.93 461.73,152.68 464.00,152.18
             468.68,151.16 472.09,149.31 475.32,145.70
             483.75,136.27 480.48,120.51 469.00,115.19
             458.60,110.36 445.65,114.76 441.85,126.00
             440.19,130.91 441.87,135.68 439.98,138.59
             438.94,140.19 435.68,141.89 434.00,143.27
             434.00,143.27 424.00,153.00 424.00,153.00
             421.73,155.27 415.00,162.96 412.00,162.96
             409.27,162.96 404.90,157.90 403.00,156.00
             397.30,150.30 388.11,140.37 382.00,136.00
             382.00,136.00 374.00,145.00 374.00,145.00
             374.00,145.00 392.00,163.00 392.00,163.00 Z
           M 294.00,157.00
           C 294.00,157.00 284.20,169.00 284.20,169.00
             277.14,177.72 266.30,187.40 256.00,192.00
             256.00,192.00 275.96,213.00 275.96,213.00
             275.96,213.00 295.00,232.00 295.00,232.00
             295.00,232.00 316.01,210.00 316.01,210.00
             316.01,210.00 332.00,193.00 332.00,193.00
             317.61,186.07 301.80,170.88 294.00,157.00 Z
           M 170.00,240.00
           C 170.00,240.00 169.00,254.00 169.00,254.00
             169.00,254.00 169.00,279.00 169.00,279.00
             169.00,279.00 169.00,347.00 169.00,347.00
             169.00,347.00 172.00,372.00 172.00,372.00
             172.00,372.00 189.08,353.00 189.08,353.00
             189.08,353.00 218.73,318.00 218.73,318.00
             218.73,318.00 229.98,305.00 229.98,305.00
             229.98,305.00 232.55,299.09 232.55,299.09
             232.55,299.09 227.99,293.87 227.99,293.87
             227.99,293.87 215.00,282.58 215.00,282.58
             215.00,282.58 170.00,240.00 170.00,240.00 Z
           M 417.00,243.00
           C 417.00,243.00 398.00,260.96 398.00,260.96
             398.00,260.96 371.00,285.15 371.00,285.15
             371.00,285.15 360.02,294.73 360.02,294.73
             360.02,294.73 356.34,300.04 356.34,300.04
             356.34,300.04 359.88,306.00 359.88,306.00
             359.88,306.00 371.13,319.00 371.13,319.00
             371.13,319.00 399.08,352.00 399.08,352.00
             399.08,352.00 414.00,370.00 414.00,370.00
             418.41,362.47 417.00,341.44 417.00,332.00
             417.00,332.00 417.00,243.00 417.00,243.00 Z
           M 343.00,310.00
           C 343.00,310.00 322.00,326.25 322.00,326.25
             322.00,326.25 308.00,339.00 308.00,339.00
             308.00,339.00 334.00,359.12 334.00,359.12
             334.00,359.12 415.00,419.58 415.00,419.58
             415.00,419.58 440.00,437.71 440.00,437.71
             444.15,440.66 446.60,443.90 451.00,440.00
             451.00,440.00 384.58,359.00 384.58,359.00
             384.58,359.00 359.87,330.00 359.87,330.00
             359.87,330.00 343.00,310.00 343.00,310.00 Z
           M 388.00,419.00
           C 388.00,419.00 321.00,368.87 321.00,368.87
             321.00,368.87 303.00,354.88 303.00,354.88
             303.00,354.88 295.00,349.88 295.00,349.88
             295.00,349.88 287.00,354.00 287.00,354.00
             287.00,354.00 271.00,366.42 271.00,366.42
             271.00,366.42 224.00,402.13 224.00,402.13
             224.00,402.13 200.00,421.00 200.00,421.00
             209.97,430.15 220.73,436.43 232.00,443.69
             232.00,443.69 268.00,468.42 268.00,468.42
             268.00,468.42 285.00,480.63 285.00,480.63
             287.06,482.15 290.40,484.98 293.00,485.06
             295.66,485.16 298.89,482.49 301.00,481.00
             301.00,481.00 318.00,468.86 318.00,468.86
             318.00,468.86 362.00,439.00 362.00,439.00
             371.11,432.93 380.93,427.58 388.00,419.00 Z" />
</svg>
